<svg xmlns="http://www.w3.org/2000/svg" xmlns:xlink="http://www.w3.org/1999/xlink" viewBox="0 0 1920 1080"
     width="1920" height="1080" preserveAspectRatio="xMidYMid meet"
     style="width: 100%; height: 100%; transform: translate3d(0px, 0px, 0px); content-visibility: visible;">
    <defs>
        <clipPath id="__lottie_element_2">
            <rect width="1920" height="1080" x="0" y="0"></rect>
        </clipPath>
        <clipPath id="__lottie_element_4">
            <path d="M0,0 L1920,0 L1920,1080 L0,1080z"></path>
        </clipPath>
        <linearGradient id="__lottie_element_16" spreadMethod="pad" gradientUnits="userSpaceOnUse"
                        x1="-274.7640075683594" y1="-96.14399719238281" x2="-102.08799743652344"
                        y2="-5.689000129699707">
            <stop offset="0%" stop-color="rgb(255,183,0)" stop-opacity="1"></stop>
            <stop offset="45%" stop-color="rgb(255,129,78)" stop-opacity="0.8650000095367432"></stop>
            <stop offset="90%" stop-color="rgb(255,75,155)" stop-opacity="0.7300000190734863"></stop>
        </linearGradient>
        <linearGradient id="__lottie_element_20" spreadMethod="pad" gradientUnits="userSpaceOnUse"
                        x1="-187.09500122070312" y1="-65.46700286865234" x2="42.54199981689453"
                        y2="83.44100189208984">
            <stop offset="0%" stop-color="rgb(0,255,211)" stop-opacity="0.7200000286102295"></stop>
            <stop offset="45%" stop-color="rgb(75,208,233)" stop-opacity="0.8600000143051147"></stop>
            <stop offset="90%" stop-color="rgb(150,160,255)" stop-opacity="1"></stop>
        </linearGradient>
    </defs>
    <g clip-path="url(#__lottie_element_2)">
        <g transform="matrix(-0.3421846032142639,0.939632773399353,-0.939632773399353,-0.3421846032142639,948.333984375,530.7750244140625)"
           opacity="0.7000000000000001" style="display: block;">
            <g opacity="1"
               transform="matrix(0.08628636598587036,-0.9962703585624695,0.9962703585624695,0.08628636598587036,0,0)">
                <path fill="rgb(0,71,255)" fill-opacity="0.4"
                      d=" M-25.25706672668457,629.9771118164062 C157.21337890625,672.2696533203125 321.8883361816406,363.4981689453125 321.8883361816406,23.661537170410156 C321.8883361816406,-316.17510986328125 359.5946044921875,-737.7600708007812 163.04725646972656,-737.7600708007812 C-33.4997444152832,-737.7600708007812 -472.68017578125,-643.179443359375 -412.5281677246094,-234.62246704101562 C-360.22216796875,244.52017211914062 -214.6409912109375,-42.89487075805664 -25.25706672668457,629.9771118164062z"></path>
            </g>
        </g>
        <g transform="matrix(-0.7986354827880859,0.6018150448799133,-0.6018150448799133,-0.7986354827880859,1219.149169921875,564.8469848632812)"
           opacity="0.6" style="display: block;">
            <g opacity="1"
               transform="matrix(0.8186010718345642,-0.5743625164031982,0.5743625164031982,0.8186010718345642,0,0)">
                <path fill="rgb(0,246,255)" fill-opacity="1"
                      d=" M0,-100.67400360107422 C100.8575210571289,-100.67400360107422 182.74600219726562,-55.561981201171875 182.74600219726562,0 C182.74600219726562,55.561981201171875 100.8575210571289,100.67400360107422 0,100.67400360107422 C-100.8575210571289,100.67400360107422 -182.74600219726562,55.561981201171875 -182.74600219726562,0 C-182.74600219726562,-55.561981201171875 -100.8575210571289,-100.67400360107422 0,-100.67400360107422z"></path>
            </g>
        </g>
        <g transform="matrix(0.80901700258255,-0.5877852439880371,0.5877852439880371,0.80901700258255,1323.831787109375,620.1747436523438)"
           opacity="0.75" style="display: block;">
            <g opacity="1"
               transform="matrix(0.9620038270950317,-0.2730358839035034,0.2730358839035034,0.9620038270950317,0,0)">
                <path fill="url(#__lottie_element_20)" fill-opacity="1"
                      d=" M-4.55894136428833,-139.49920654296875 C100.34105682373047,-139.49920654296875 164.06411743164062,-52.38868713378906 164.06411743164062,-6.176688194274902 C164.06411743164062,40.03531265258789 110.67027282714844,129.40786743164062 5.770275115966797,129.40786743164062 C-99.12972259521484,129.40786743164062 -156.5963134765625,45.607948303222656 -156.5963134765625,-0.6040498614311218 C-156.5963134765625,-46.8160514831543 -109.45893859863281,-139.49920654296875 -4.55894136428833,-139.49920654296875z"></path>
            </g>
        </g>
        <g transform="matrix(0.41575750708580017,-0.9094755053520203,0.9094755053520203,0.41575750708580017,1636.19189453125,318.35595703125)"
           opacity="0.35000000000000003" style="display: block;">
            <g opacity="1"
               transform="matrix(0.9620038270950317,-0.2730358839035034,0.2730358839035034,0.9620038270950317,0,0)">
                <path fill="url(#__lottie_element_16)" fill-opacity="1"
                      d=" M0,-122.88200378417969 C153.9461669921875,-122.88200378417969 278.9385070800781,-67.8185806274414 278.9385070800781,0 C278.9385070800781,67.8185806274414 153.9461669921875,122.88200378417969 0,122.88200378417969 C-153.9461669921875,122.88200378417969 -278.9385070800781,67.8185806274414 -278.9385070800781,0 C-278.9385070800781,-67.8185806274414 -153.9461669921875,-122.88200378417969 0,-122.88200378417969z"></path>
            </g>
        </g>
        <g clip-path="url(#__lottie_element_4)" transform="matrix(1,0,0,1,171.839599609375,0)" opacity="1"
           style="display: block;">
            <g transform="matrix(-1,0,0,-1,886.5449829101562,-80.53399658203125)" opacity="0.9"
               style="display: block;">
                <g opacity="1"
                   transform="matrix(0.08628636598587036,-0.9962703585624695,0.9962703585624695,0.08628636598587036,0,0)">
                    <path fill="rgb(226,108,255)" fill-opacity="0.47000000000000003"
                          d=" M22.69099998474121,205.2310028076172 C96.7969970703125,205.2310028076172 136.08799743652344,63.22100067138672 136.08799743652344,-32.29100036621094 C136.08799743652344,-127.8030014038086 76.01300048828125,-205.2310028076172 1.906999945640564,-205.2310028076172 C-72.1989974975586,-205.2310028076172 -154.9530029296875,-147.11700439453125 -132.2729949951172,-32.29100036621094 C-112.552001953125,102.37300109863281 -18.420000076293945,-49.54199981689453 22.69099998474121,205.2310028076172z"></path>
                </g>
            </g>
            <g transform="matrix(0.7880107760429382,-0.6156615018844604,0.6156615018844604,0.7880107760429382,1061.4849853515625,148.54200744628906)"
               opacity="0.35000000000000003" style="display: block;">
                <g opacity="1"
                   transform="matrix(0.8186010718345642,-0.5743625164031982,0.5743625164031982,0.8186010718345642,0,0)">
                    <path fill="rgb(255,77,156)" fill-opacity="0.5"
                          d=" M0,-80.43250274658203 C80.57905578613281,-80.43250274658203 146.0030059814453,-44.39069747924805 146.0030059814453,0 C146.0030059814453,44.39069747924805 80.57905578613281,80.43250274658203 0,80.43250274658203 C-80.57905578613281,80.43250274658203 -146.0030059814453,44.39069747924805 -146.0030059814453,0 C-146.0030059814453,-44.39069747924805 -80.57905578613281,-80.43250274658203 0,-80.43250274658203z"></path>
                </g>
            </g>
        </g>
    </g>
</svg>
